<?xml version="1.0" encoding="utf-8"?>
<!-- Generator: Adobe Illustrator 16.0.3, SVG Export Plug-In . SVG Version: 6.00 Build 0)  -->
<!DOCTYPE svg PUBLIC "-//W3C//DTD SVG 1.1//EN" "http://www.w3.org/Graphics/SVG/1.1/DTD/svg11.dtd">
<svg version="1.1" id="Filled" xmlns="http://www.w3.org/2000/svg" xmlns:xlink="http://www.w3.org/1999/xlink" x="0px" y="0px"
	 width="100px" height="100px" viewBox="210 210.5 100 100" enable-background="new 210 210.5 100 100" xml:space="preserve">
<rect x="210" y="210.5" width="100" height="100"/>
<g>
	<g>
		<path d="M282.937,224.418l-5.664-7.345c-2.286-2.942-5.8-4.669-9.526-4.683h-15.491c-3.726,0.014-7.239,1.74-9.525,4.683
			l-5.665,7.345H282.937z"/>
		<path fill="#FFFFFF" d="M286.782,226.309h-53.563l8.014-10.39c2.665-3.43,6.679-5.403,11.016-5.419h15.498
			c4.345,0.016,8.358,1.989,11.019,5.413L286.782,226.309z M240.91,222.527h38.182l-3.316-4.3c-1.938-2.495-4.869-3.936-8.036-3.946
			h-15.484c-3.159,0.011-6.09,1.451-8.033,3.952L240.91,222.527z"/>
	</g>
	<circle cx="260.001" cy="268.518" r="16.037"/>
	<g>
		<path d="M288.066,232.436h-56.129c-11.065,0.014-20.032,8.98-20.046,20.046v36.083c0.014,11.065,8.98,20.032,20.046,20.045h56.129
			c11.065-0.013,20.032-8.979,20.045-20.045v-36.083C308.098,241.416,299.131,232.449,288.066,232.436z M260.001,292.573
			c-13.285,0-24.056-10.77-24.056-24.056c0-13.284,10.771-24.054,24.056-24.054s24.055,10.77,24.055,24.054
			C284.043,281.797,273.281,292.56,260.001,292.573z"/>
		<path fill="#FFFFFF" d="M288.068,310.5h-56.131c-12.082-0.015-21.922-9.854-21.937-21.934v-36.085
			c0.015-12.082,9.854-21.921,21.935-21.937h56.131c12.082,0.016,21.921,9.854,21.935,21.935v36.085
			C309.987,300.646,300.148,310.485,288.068,310.5z M231.937,234.326c-9.997,0.013-18.144,8.157-18.155,18.157v36.081
			c0.012,9.997,8.158,18.144,18.157,18.155h56.124c10-0.012,18.146-8.158,18.158-18.158v-36.08
			c-0.012-9.998-8.158-18.143-18.158-18.155H231.937z M260.004,294.464c-14.31,0-25.949-11.639-25.949-25.946
			c0-14.306,11.64-25.944,25.946-25.944s25.945,11.639,25.945,25.944C285.933,282.81,274.294,294.448,260.004,294.464z
			 M260.001,246.354c-12.222,0-22.165,9.942-22.165,22.163c0,12.222,9.943,22.166,22.165,22.166
			c12.209-0.013,22.151-9.958,22.165-22.167C282.166,256.297,272.222,246.354,260.001,246.354z"/>
	</g>
</g>
</svg>
