<?xml version="1.0" encoding="utf-8"?>
<!-- Generator: Adobe Illustrator 16.0.3, SVG Export Plug-In . SVG Version: 6.00 Build 0)  -->
<!DOCTYPE svg PUBLIC "-//W3C//DTD SVG 1.1//EN" "http://www.w3.org/Graphics/SVG/1.1/DTD/svg11.dtd">
<svg version="1.1" id="Filled" xmlns="http://www.w3.org/2000/svg" xmlns:xlink="http://www.w3.org/1999/xlink" x="0px" y="0px"
	 width="100px" height="100px" viewBox="206 206 100 100" enable-background="new 206 206 100 100" xml:space="preserve">
<rect x="206" y="206" width="100" height="100"/>
<g>
	<path d="M207.464,274.549c0,2.471,0.155,11.285,0.155,11.285c0.775,10.52,9.519,18.67,20.068,18.703h56.626
		c3.963,0,7.837-1.172,11.136-3.369c0,0,4.881-3.393,5.718-5.72"/>
	<path fill="#FFFFFF" d="M284.313,306h-56.626c-11.248-0.035-20.703-8.846-21.528-20.058c-0.01-0.443-0.159-8.938-0.159-11.394
		h2.928c0,2.43,0.152,11.172,0.154,11.26c0.711,9.614,8.887,17.233,18.61,17.265h56.621c3.687,0,7.257-1.081,10.323-3.123
		c1.845-1.284,4.686-3.7,5.152-4.998l2.756,0.991c-0.948,2.634-5.381,5.815-6.261,6.427C292.71,304.75,288.578,306,284.313,306z"/>
</g>
<circle cx="280.268" cy="231.732" r="8.089"/>
<g>
	<path d="M284.313,207.463h-56.626c-11.163,0.014-20.209,9.061-20.223,20.223v46.862l22.101-22.1
		c7.896-7.899,20.701-7.901,28.6-0.003c0,0,0.001,0.002,0.003,0.003l42.999,42.999c2.199-3.299,3.368-7.173,3.371-11.136v-56.626
		C304.523,216.524,295.478,207.477,284.313,207.463z M280.268,247.911c-8.933,0-16.178-7.244-16.178-16.179
		c0-8.936,7.245-16.179,16.178-16.179c8.935,0,16.179,7.244,16.179,16.179C296.447,240.667,289.202,247.911,280.268,247.911z"/>
	<path fill="#FFFFFF" d="M301.394,297.746l-44.188-44.188l-0.502-0.376l-0.001-0.115c-3.49-3.28-8.025-5.08-12.837-5.08
		c-5.012,0-9.724,1.952-13.267,5.496L206,278.082v-50.396c0.015-11.945,9.742-21.672,21.686-21.687h56.627
		c11.944,0.015,21.673,9.742,21.688,21.685v56.628c-0.002,4.271-1.253,8.402-3.616,11.947L301.394,297.746z M259.628,251.84
		l41.248,41.248c1.44-2.69,2.195-5.691,2.197-8.776v-56.625c-0.013-10.331-8.431-18.747-18.763-18.759h-56.624
		c-10.331,0.013-18.747,8.428-18.759,18.761v43.326l19.603-19.601c4.095-4.097,9.542-6.354,15.336-6.354
		c5.792,0,11.237,2.255,15.333,6.35L259.628,251.84z M280.268,249.375c-9.728,0-17.641-7.915-17.641-17.643
		s7.913-17.643,17.641-17.643c9.729,0,17.643,7.915,17.643,17.643S289.996,249.375,280.268,249.375z M280.268,217.017
		c-8.112,0-14.714,6.601-14.714,14.715s6.602,14.715,14.714,14.715c8.114,0,14.716-6.601,14.716-14.715
		S288.382,217.017,280.268,217.017z"/>
</g>
</svg>
