<?xml version="1.0" encoding="utf-8"?>
<!-- Generator: Adobe Illustrator 16.0.3, SVG Export Plug-In . SVG Version: 6.00 Build 0)  -->
<!DOCTYPE svg PUBLIC "-//W3C//DTD SVG 1.1//EN" "http://www.w3.org/Graphics/SVG/1.1/DTD/svg11.dtd">
<svg version="1.1" id="Layer_1" xmlns="http://www.w3.org/2000/svg" xmlns:xlink="http://www.w3.org/1999/xlink" x="0px" y="0px"
	 width="100px" height="100px" viewBox="206 206 100 100" enable-background="new 206 206 100 100" xml:space="preserve">
<rect x="206" y="206" width="100" height="100.007"/>
<g>
	<path d="M300.23,210.182c-2.782-2.311-6.451-3.259-10.004-2.585l-48.618,9.104c-5.754,1.077-9.923,6.104-9.918,11.958v45.807
		c-2.453-1.458-5.25-2.236-8.104-2.252c-8.951,0-16.208,7.256-16.208,16.207s7.256,16.208,16.208,16.208
		c8.951,0,16.207-7.257,16.207-16.208v-42.87l56.726-10.616v27.396c-2.451-1.466-5.249-2.251-8.104-2.273
		c-8.95,0-16.206,7.257-16.206,16.207c0,8.951,7.256,16.208,16.206,16.208c8.951,0,16.208-7.257,16.208-16.208l0,0v-56.727
		C304.623,215.921,303.012,212.492,300.23,210.182z"/>
	<path fill="#FFFFFF" d="M223.586,306.007c-9.697,0-17.585-7.889-17.585-17.586c0-9.696,7.889-17.585,17.585-17.585
		c2.32,0.012,4.606,0.488,6.725,1.39v-43.566c-0.004-6.514,4.64-12.113,11.043-13.312l48.618-9.104
		c3.9-0.738,8.071,0.333,11.139,2.879c3.108,2.581,4.891,6.377,4.89,10.417v56.726c0,9.697-7.889,17.586-17.586,17.586
		c-9.695,0-17.584-7.889-17.584-17.586c0-9.696,7.889-17.585,17.584-17.585c2.323,0.018,4.608,0.499,6.727,1.405v-23.49
		l-53.97,10.101v41.725C241.171,298.118,233.282,306.007,223.586,306.007z M223.578,273.592c-8.169,0-14.821,6.652-14.821,14.829
		s6.652,14.83,14.829,14.83c8.176,0,14.829-6.653,14.829-14.83v-44.014l59.482-11.132v31.485l-2.086-1.247
		c-2.239-1.339-4.8-2.058-7.408-2.078c-8.165,0-14.816,6.652-14.816,14.829c0,8.178,6.651,14.83,14.828,14.83
		c8.178,0,14.83-6.652,14.83-14.83v-56.727c0.001-3.217-1.419-6.24-3.895-8.295c-2.44-2.028-5.749-2.881-8.868-2.291l-48.62,9.104
		c-5.099,0.955-8.798,5.414-8.794,10.602v48.231l-2.083-1.239C228.744,274.319,226.183,273.606,223.578,273.592z"/>
</g>
</svg>
