<?xml version="1.0" encoding="utf-8"?>
<!-- Generator: Adobe Illustrator 16.0.3, SVG Export Plug-In . SVG Version: 6.00 Build 0)  -->
<!DOCTYPE svg PUBLIC "-//W3C//DTD SVG 1.1//EN" "http://www.w3.org/Graphics/SVG/1.1/DTD/svg11.dtd">
<svg version="1.1" id="Filled" xmlns="http://www.w3.org/2000/svg" xmlns:xlink="http://www.w3.org/1999/xlink" x="0px" y="0px"
	 width="100px" height="100px" viewBox="0 0 100 100" enable-background="new 0 0 100 100" xml:space="preserve">
<rect width="100" height="100"/>
<g>
	<g>
		<path d="M98.438,79.634c0,6.392-6.055,11.538-13.574,11.538H15.137c-7.52,0-13.574-5.146-13.574-11.538V20.366
			c0-6.392,6.055-11.538,13.574-11.538h69.727c7.52,0,13.574,5.146,13.574,11.538V79.634z"/>
		<path fill="#FFFFFF" d="M84.863,92.5H15.137C6.787,92.5,0,86.73,0,79.634V20.366C0,13.269,6.787,7.5,15.137,7.5h69.727
			C93.213,7.5,100,13.269,100,20.366v59.268C100,86.73,93.213,92.5,84.863,92.5z M15.137,10.156c-6.641,0-12.012,4.565-12.012,10.21
			v59.268c0,5.645,5.371,10.21,12.012,10.21h69.727c6.641,0,12.012-4.565,12.012-10.21V20.366c0-5.645-5.371-10.21-12.012-10.21
			H15.137z"/>
	</g>
	<path fill="#FFFFFF" d="M0,27.505"/>
	<path fill="#FFFFFF" d="M0,27.505"/>
	<path fill="none" d="M0,14.619v8.458l41.081,25.98c4.926,3.115,12.912,3.115,17.838,0"/>
	<path fill="none" d="M41.081,49.057c4.926,3.115,12.912,3.115,17.838,0L100,23.076v-8.085v8.085"/>
	<path fill="#FFFFFF" d="M58.919,49.057c-4.926,3.115-12.912,3.115-17.838,0L0,23.077v4.428l40.101,25.36
		c5.468,3.458,14.332,3.458,19.799,0L100,27.505v-4.429L58.919,49.057z"/>
</g>
</svg>
