<?xml version="1.0" encoding="utf-8"?>
<!-- Generator: Adobe Illustrator 16.0.3, SVG Export Plug-In . SVG Version: 6.00 Build 0)  -->
<!DOCTYPE svg PUBLIC "-//W3C//DTD SVG 1.1//EN" "http://www.w3.org/Graphics/SVG/1.1/DTD/svg11.dtd">
<svg version="1.1" id="Layer_1" xmlns="http://www.w3.org/2000/svg" xmlns:xlink="http://www.w3.org/1999/xlink" x="0px" y="0px"
	 width="100px" height="100px" viewBox="206 206 100 100" enable-background="new 206 206 100 100" xml:space="preserve">
<rect x="206" y="206" width="100" height="100"/>
<path fill="#FFFFFF" d="M306,226.833v58.334c-0.015,11.5-9.335,20.819-20.835,20.833h-58.33c-11.5-0.014-20.82-9.333-20.835-20.833
	v-58.334c0.015-11.5,9.335-20.819,20.835-20.833h58.33C296.665,206.014,305.986,215.333,306,226.833z"/>
<path d="M303.5,228.292v55.417c-0.015,10.926-8.868,19.778-19.794,19.792h-55.412c-10.926-0.014-19.78-8.866-19.794-19.792v-55.417
	c0.014-10.925,8.868-19.779,19.794-19.792h55.412C294.632,208.513,303.486,217.367,303.5,228.292z M275.76,256
	c0.005-3.398-1.862-6.523-4.854-8.134l-20.89-10.431c-4.431-2.542-10.084-1.011-12.625,3.42c-0.808,1.404-1.23,2.994-1.23,4.611
	v21.067c-0.02,3.303,1.743,6.359,4.607,8c1.424,0.832,3.045,1.273,4.698,1.278c1.524,0.007,3.025-0.388,4.352-1.145l21.279-10.636
	C273.994,262.399,275.78,259.325,275.76,256z"/>
<path d="M272.903,255.992c0.004-2.9-1.59-5.568-4.145-6.943l-17.832-8.903c-3.783-2.171-8.609-0.864-10.778,2.919
	c-0.689,1.199-1.05,2.555-1.05,3.936v17.984c-0.017,2.819,1.487,5.429,3.933,6.829c1.216,0.71,2.6,1.087,4.011,1.091
	c1.301,0.006,2.582-0.331,3.715-0.977l18.165-9.079C271.395,261.455,272.919,258.831,272.903,255.992z"/>
</svg>
