<?xml version="1.0" encoding="utf-8"?>
<!-- Generator: Adobe Illustrator 16.0.3, SVG Export Plug-In . SVG Version: 6.00 Build 0)  -->
<!DOCTYPE svg PUBLIC "-//W3C//DTD SVG 1.1//EN" "http://www.w3.org/Graphics/SVG/1.1/DTD/svg11.dtd">
<svg version="1.1" id="Capa_1" xmlns="http://www.w3.org/2000/svg" xmlns:xlink="http://www.w3.org/1999/xlink" x="0px" y="0px"
	 width="320px" height="57.5px" viewBox="0 0 320 57.5" enable-background="new 0 0 320 57.5" xml:space="preserve">
<g>
	<rect x="-0.5" y="0.5" stroke="#000000" stroke-miterlimit="10" width="320" height="57"/>
	<g>
		<path fill="#FFFFFF" d="M89.554,16.266v-2.627h8.285v2.627h-2.627v26.515h-3.03V16.266H89.554z"/>
		<path fill="#FFFFFF" d="M98.284,42.781V13.639h3.071v12.085h1.455V13.639h3.031v29.142h-3.031v-14.43h-1.455v14.43H98.284z"/>
		<path fill="#FFFFFF" d="M107.297,42.781V13.639h6.386v2.627h-3.314v9.62h3.193v2.626h-3.193v11.641h3.314v2.628H107.297z"/>
		<path fill="#FFFFFF" d="M126.414,42.781V13.639h3.759h1.495c1.536,0,2.304,0.758,2.304,2.272v9.377
			c0,0.812-0.142,1.387-0.425,1.725c-0.282,0.339-0.909,0.67-1.879,0.995l-0.687,0.122l0.565,0.081
			c0.996,0.242,1.65,0.518,1.96,0.827c0.31,0.31,0.465,0.841,0.465,1.595v9.807c0,0.754-0.176,1.306-0.525,1.656
			c-0.351,0.35-0.957,0.578-1.819,0.686h-1.495H126.414z M130.94,25.517v-7.871c0-0.433-0.095-0.757-0.283-0.974
			c-0.189-0.216-0.444-0.324-0.768-0.324h-0.404v10.428h0.525C130.63,26.775,130.94,26.355,130.94,25.517z M130.94,38.709v-8.585
			c0-0.481-0.283-0.722-0.849-0.722h-0.606v10.751h0.525C130.63,40.153,130.94,39.671,130.94,38.709z"/>
		<path fill="#FFFFFF" d="M135.427,42.781V13.639h6.386v2.627h-3.314v9.62h3.192v2.626h-3.192v11.641h3.314v2.628H135.427z"/>
		<path fill="#FFFFFF" d="M141.813,42.781l2.143-29.142h5.375l2.143,29.142l-3.081,0l-0.587-7.436l-2.405-0.002l-0.507,7.438
			L141.813,42.781z M146.602,17.315l-1.092,15.4l2.224,0.002L146.602,17.315z"/>
		<path fill="#FFFFFF" d="M150.905,16.266v-2.627h8.286v2.627h-2.627v26.515h-3.031V16.266H150.905z"/>
		<path fill="#FFFFFF" d="M171.357,40.436V16.023c0-0.969,0.263-1.65,0.789-2.041c0.523-0.39,1.501-0.586,2.929-0.586
			s2.427,0.202,2.991,0.607c0.566,0.403,0.85,1.078,0.85,2.02v7.154h-3.032v-6.265c0-0.404-0.221-0.606-0.664-0.606
			c-0.223-0.026-0.409,0.027-0.562,0.162c-0.153,0.136-0.229,0.323-0.229,0.566v22.229l0.727,0.889l0.728-0.889v-8.448h3.032v9.62
			c0,0.889-0.283,1.556-0.85,2.001c-0.564,0.444-1.469,0.667-2.708,0.667c-0.485,0-1.037-0.041-1.656-0.121
			C172.139,42.74,171.357,41.891,171.357,40.436z"/>
		<path fill="#FFFFFF" d="M180.371,42.781V13.639h3.071v12.085h1.454V13.639h3.032v29.142h-3.032v-14.43h-1.454v14.43H180.371z"/>
		<path fill="#FFFFFF" d="M188.373,42.781l2.142-29.142h5.375l2.144,29.142l-3.081,0l-0.588-7.436l-2.406-0.002l-0.506,7.438
			L188.373,42.781z M193.16,17.315l-1.09,15.4l2.223,0.002L193.16,17.315z"/>
		<path fill="#FFFFFF" d="M198.476,42.781V13.639h2.346l2.788,13.944V13.639h3.072v29.142h-2.224l-2.91-14.228v14.228H198.476z"/>
		<path fill="#FFFFFF" d="M208.136,42.781V13.639h2.345l2.789,13.944V13.639h3.07v29.142h-2.221l-2.912-14.228v14.228H208.136z"/>
		<path fill="#FFFFFF" d="M217.796,42.781V13.639h6.386v2.627h-3.314v9.62h3.193v2.626h-3.193v11.641h3.314v2.628H217.796z"/>
		<path fill="#FFFFFF" d="M225.19,42.781V13.639h3.073v26.514h2.183v2.628H225.19z"/>
	</g>
</g>
</svg>
